<?xml version="1.0" encoding="UTF-8" standalone="no"?>
<svg
   xmlns="http://www.w3.org/2000/svg"
   width="138.10641mm"
   height="137.97978mm"
   viewBox="0 0 138.10641 137.97978"
   version="1.1"
   id="svg8">
  <defs
     id="defs2">
    <clipPath
       clipPathUnits="userSpaceOnUse"
       id="clipPath849">
      <path
         d="M 1.03e-7,138.96 H 612 V 720 H 1.03e-7 Z"
         clip-rule="evenodd"
         id="path847" />
    </clipPath>
    <clipPath
       clipPathUnits="userSpaceOnUse"
       id="clipPath884">
      <path
         d="M 1.03e-7,138.96 H 612 V 720 H 1.03e-7 Z"
         clip-rule="evenodd"
         id="path882" />
    </clipPath>
  </defs>

  <metadata
     id="metadata5">
  </metadata>
  <g

     id="layer2"

     transform="translate(-36.930088,-35.716386)">
    <path
       style="fill:#cd1c21;stroke-width:0.225543"
       d="m 101.25702,172.63393 c -10.080742,-0.89707 -17.755372,-3.05306 -26.264502,-7.37833 -18.2816,-9.29271 -31.50206,-26.60189 -35.63724,-46.65886 -3.71346,-18.01147 -0.10306,-36.59351 10.04693,-51.709695 2.61655,-3.896775 4.47524,-6.18135 7.86234,-9.663827 11.02327,-11.333699 24.98306,-18.215429 40.85422,-20.139827 4.035752,-0.48934 11.713712,-0.48934 15.749462,0 15.80579,1.916471 29.73985,8.76312 40.74541,20.020695 15.66945,16.028255 22.33368,38.060074 18.24417,60.314844 -2.9368,15.9818 -12.2764,31.21012 -25.23362,41.14369 l -1.78701,1.36999 -0.66836,-1.19299 c -1.79839,-3.21002 -3.6427,-6.33886 -4.75698,-8.07017 l -1.23271,-1.9153 1.04304,-0.40969 c 4.70843,-1.84944 11.39953,-2.32225 15.36632,-1.08582 1.55074,0.48335 1.62546,0.31958 0.11933,-0.26156 -3.90954,-1.50849 -10.40603,-1.40573 -15.33413,0.24255 l -1.82615,0.61079 -1.55591,-2.14115 c -2.20704,-3.03723 -4.84901,-6.32148 -7.01834,-8.72458 l -1.86652,-2.06765 0.95372,-0.55578 c 2.00546,-1.16869 8.50298,-4.32169 10.85888,-5.26942 3.17469,-1.27711 6.99266,-2.30475 9.23187,-2.48485 2.38609,-0.1919 1.69094,-0.61963 -0.98055,-0.60333 -3.55695,0.0217 -8.61183,1.77999 -16.20592,5.63704 l -4.59028,2.33142 -2.85275,-2.72829 c -1.56902,-1.50056 -4.19758,-3.85317 -5.84125,-5.22802 -1.64367,-1.37486 -2.98825,-2.55633 -2.98795,-2.62549 2.2e-4,-0.0692 0.58389,-0.43024 1.29687,-0.80238 5.36798,-2.8018 8.18026,-5.97703 8.17209,-9.22678 -0.005,-1.94071 -0.3451,-2.30367 -0.52711,-0.56235 -0.37081,3.54758 -2.72969,6.18429 -7.94146,8.87679 l -2.04395,1.05594 -2.46698,-1.73062 c -8.07865,-5.66728 -15.653722,-8.88287 -21.840572,-9.27124 -1.25338,-0.0787 -2.22813,-0.0876 -2.1661,-0.0197 0.062,0.0678 1.07698,0.28804 2.25546,0.48933 6.13159,1.04732 12.912112,3.95474 19.478362,8.35216 1.38184,0.92541 2.81692,1.93196 3.18907,2.23679 l 0.67664,0.55421 -2.81933,1.34957 c -4.86268,2.32767 -9.37099,3.60702 -21.201382,6.01644 -8.67763,1.76733 -11.16556,2.3408 -14.73848,3.39726 -4.49421,1.32888 -9.42805,3.45863 -12.22806,5.27839 -1.34394,0.87345 -1.1677,0.81736 2.15643,-0.68635 5.22775,-2.36482 12.42371,-4.3714 24.58457,-6.85536 11.880732,-2.42675 17.172252,-3.96039 22.245372,-6.44739 1.50458,-0.73759 2.81398,-1.34107 2.90978,-1.34107 0.63941,0 11.49615,9.78941 11.49615,10.36596 0,0.16714 -1.42094,1.15643 -3.15765,2.19841 -4.59622,2.75762 -12.31449,7.94355 -16.46489,11.06282 -3.56472,2.6791 -8.729562,7.08715 -10.262372,8.75864 l -0.78941,0.86084 1.01496,-0.79612 c 2.67384,-2.09733 8.781052,-6.6696 11.615642,-8.69627 6.48391,-4.63584 18.30324,-12.25174 19.01384,-12.25174 0.49462,0 5.77377,6.26709 8.80386,10.45141 l 1.60704,2.21921 -1.32248,0.88309 c -3.00999,2.00994 -6.20211,6.26877 -9.08075,12.11525 -0.87409,1.77525 -1.54197,3.27501 -1.48419,3.3328 0.0578,0.0578 0.71774,-0.98873 1.46656,-2.32558 3.63578,-6.49088 7.10103,-10.77421 10.24325,-12.66145 l 0.82827,-0.49746 1.83218,2.94916 c 1.0077,1.62205 2.52923,4.20879 3.38117,5.74831 l 1.54899,2.79915 -2.17952,1.41207 c -2.80045,1.81435 -8.22578,4.60761 -11.5397,5.94127 -5.0141,2.01787 -10.69519,3.49557 -16.46489,4.28267 -2.47629,0.33781 -11.38008,0.6191 -13.5328,0.42754 z m 62.76422,-36.90929 c 0.55238,-1.02284 1.51834,-3.02687 2.14656,-4.45341 13.00999,-29.54246 2.82737,-63.874442 -24.21264,-81.635974 -19.69725,-12.938361 -44.784962,-14.29167 -65.820662,-3.550572 -12.5179,6.3918 -22.69959,16.647958 -28.9711,29.182976 -8.76334,17.51551 -9.29323,37.73056 -1.46163,55.76005 1.0911,2.51187 3.15045,6.55863 3.33762,6.55863 0.0399,0 0.68091,-0.98955 1.42438,-2.19901 0.74347,-1.20946 2.18609,-3.31544 3.20582,-4.67995 1.01973,-1.36452 1.89611,-2.58766 1.94751,-2.7181 0.0514,-0.13044 -0.36687,-1.27534 -0.92948,-2.54422 -3.38318,-7.63026 -4.77902,-14.94933 -4.56665,-23.94511 0.12047,-5.10335 0.48652,-7.89931 1.61909,-12.36716 1.26812,-5.00256 3.77952,-10.89033 6.55397,-15.365254 5.28287,-8.520764 13.23748,-15.820021 22.09995,-20.279205 2.65995,-1.338363 6.65231,-3.036884 6.79733,-2.891871 0.0406,0.04061 -0.50796,0.48775 -1.21905,0.993636 -5.41066,3.849252 -9.90538,9.734796 -12.10701,15.853329 -3.7001,10.282955 -2.34002,21.367865 3.73633,30.451855 1.71723,2.56721 5.07826,6.10623 7.58776,7.98959 l 1.88156,1.41209 1.51079,-0.42004 c 5.33968,-1.48456 10.9991,-2.21875 17.105982,-2.21913 6.24995,-4.6e-4 11.1852,0.5858 16.3678,1.94412 l 2.19087,0.57421 1.66581,-1.25368 c 0.91619,-0.68953 2.67797,-2.30452 3.91505,-3.58887 4.66852,-4.84688 7.58529,-10.45576 8.91011,-17.13389 0.64572,-3.25495 0.69137,-8.65491 0.10053,-11.892216 -0.84402,-4.624527 -3.12565,-10.09457 -5.7172,-13.706547 -2.35195,-3.278036 -5.54129,-6.43975 -8.35498,-8.282623 -0.52974,-0.34696 -0.92897,-0.665021 -0.88718,-0.706804 0.0418,-0.04178 0.83044,0.21613 1.75257,0.57314 7.47368,2.893508 13.94104,7.198563 19.73154,13.134458 7.98215,8.182589 12.97197,17.960582 15.02223,29.437372 0.45491,2.54648 0.5178,3.6399 0.52315,9.09673 0.005,4.96941 -0.0757,6.69553 -0.40555,8.68329 -0.81512,4.9126 -2.15776,9.50988 -4.04288,13.84301 -0.61005,1.40227 -0.85058,2.21094 -0.71379,2.39985 0.11346,0.15671 1.01826,1.35261 2.01067,2.65756 0.9924,1.30494 2.50054,3.4973 3.35142,4.8719 0.85088,1.3746 1.62851,2.44894 1.72806,2.38742 0.0995,-0.0615 0.63296,-0.94874 1.18534,-1.97158 z"
       id="path903"
        />
    <text
       xml:space="preserve"
       style="font-size:28.2223px;line-height:1.25;font-family:sans-serif;stroke-width:0.264583"
       x="24.190477"
       y="245.49553"
       id="text928"><tspan
         id="tspan926"
         x="24.190477"
         y="245.49553"
         style="font-style:normal;font-variant:normal;font-weight:normal;font-stretch:normal;font-size:28.2223px;font-family:Anton;-inkscape-font-specification:'Anton, Normal';font-variant-ligatures:normal;font-variant-caps:normal;font-variant-numeric:normal;font-variant-east-asian:normal;stroke-width:0.264583" /></text>
  </g>
</svg>
